/* XPM */
static char * coin_xpm[] = {
"25 25 72 1",
" 	c #4E6338",
".	c #4E6238",
"+	c #455832",
"@	c #475634",
"#	c #495934",
"$	c #42562D",
"%	c #3D522C",
"&	c #4A5E35",
"*	c #42552F",
"=	c #486537",
"-	c #A2AE80",
";	c #B1BE83",
">	c #7FAB49",
",	c #307425",
"'	c #324F27",
")	c #4B5F36",
"!	c #4D6238",
"~	c #265020",
"{	c #88AF55",
"]	c #CFE299",
"^	c #C8DC95",
"/	c #A6D35F",
"(	c #65AE3B",
"_	c #216C22",
":	c #344A26",
"<	c #4B5E35",
"[	c #27391D",
"}	c #257621",
"|	c #80B94A",
"1	c #9ABB5F",
"2	c #618548",
"3	c #4C7C33",
"4	c #3D912C",
"5	c #339527",
"6	c #184A19",
"7	c #3D4F2C",
"8	c #203B1D",
"9	c #2A8226",
"0	c #358826",
"a	c #22461E",
"b	c #083416",
"c	c #023317",
"d	c #13581E",
"e	c #339427",
"f	c #13561E",
"g	c #3A4C29",
"h	c #26391D",
"i	c #398720",
"j	c #4BAB26",
"k	c #417C28",
"l	c #446724",
"m	c #436E26",
"n	c #419326",
"o	c #49A824",
"p	c #205219",
"q	c #2D5920",
"r	c #4D9E25",
"s	c #7BB838",
"t	c #84B73D",
"u	c #83B83D",
"v	c #66B42C",
"w	c #367D20",
"x	c #364C26",
"y	c #41552F",
"z	c #334A22",
"A	c #3C5324",
"B	c #3E5425",
"C	c #3D5425",
"D	c #375123",
"E	c #374B27",
"F	c #4C6137",
"G	c #4D6237",
"                         ",
"                         ",
"                         ",
"                         ",
"                         ",
"                         ",
"                         ",
"           ...           ",
"         .+@#$%&         ",
"         *=-;>,')        ",
"       !*~{]^/(_:&       ",
"       <[}|1234567       ",
"       &890abcdefg       ",
"       <hijklmnop7       ",
"       !*qrstuvwx&       ",
"         yzABCDE)        ",
"         .FFFFFG         ",
"                         ",
"                         ",
"                         ",
"                         ",
"                         ",
"                         ",
"                         ",
"                         "};
