/* XPM */
static char * tree_xpm[] = {
"25 25 215 2",
"  	c #4E6338",
". 	c #4E6438",
"+ 	c #4D6137",
"@ 	c #425430",
"# 	c #38462A",
"$ 	c #384629",
"% 	c #4C6137",
"& 	c #485B33",
"* 	c #475C2D",
"= 	c #496027",
"- 	c #495F27",
"; 	c #485C2D",
"> 	c #4D6237",
", 	c #455832",
"' 	c #40532B",
") 	c #648434",
"! 	c #7EA63D",
"~ 	c #7FA63E",
"{ 	c #648534",
"] 	c #40542B",
"^ 	c #445732",
"/ 	c #3C522E",
"( 	c #486833",
"_ 	c #759D3E",
": 	c #91BE46",
"< 	c #92BF46",
"[ 	c #759E3E",
"} 	c #496933",
"| 	c #3C512E",
"1 	c #455731",
"2 	c #4B5E35",
"3 	c #39542C",
"4 	c #59853E",
"5 	c #7AA946",
"6 	c #8EBC47",
"7 	c #8DBD47",
"8 	c #39552C",
"9 	c #384729",
"0 	c #495D35",
"a 	c #344327",
"b 	c #415E2D",
"c 	c #669441",
"d 	c #79AA47",
"e 	c #80B147",
"f 	c #79AB47",
"g 	c #679441",
"h 	c #354428",
"i 	c #4A5D35",
"j 	c #4A5E35",
"k 	c #40522F",
"l 	c #314A2C",
"m 	c #446934",
"n 	c #659442",
"o 	c #73A547",
"p 	c #77A947",
"q 	c #456934",
"r 	c #32492B",
"s 	c #405230",
"t 	c #4B5F36",
"u 	c #40512F",
"v 	c #2E4028",
"w 	c #315832",
"x 	c #45753E",
"y 	c #5B8C45",
"z 	c #6B9D47",
"A 	c #5A8C44",
"B 	c #315732",
"C 	c #2E4027",
"D 	c #3F502F",
"E 	c #4D6238",
"F 	c #3E4E2E",
"G 	c #2D3C28",
"H 	c #29432C",
"I 	c #3F6B3A",
"J 	c #508343",
"K 	c #588B46",
"L 	c #619246",
"M 	c #659846",
"N 	c #659746",
"O 	c #619346",
"P 	c #3F6A3A",
"Q 	c #28422B",
"R 	c #2D3C27",
"S 	c #3E4E2D",
"T 	c #495C34",
"U 	c #323E26",
"V 	c #1F3424",
"W 	c #2D5232",
"X 	c #43723E",
"Y 	c #528544",
"Z 	c #5A8D46",
"` 	c #2C5233",
" .	c #203425",
"..	c #323F26",
"+.	c #485B34",
"@.	c #495B34",
"#.	c #303D26",
"$.	c #234028",
"%.	c #306038",
"&.	c #396E3E",
"*.	c #457941",
"=.	c #538644",
"-.	c #578A45",
";.	c #467A41",
">.	c #244228",
",.	c #313E26",
"'.	c #254529",
").	c #31653A",
"!.	c #346C3E",
"~.	c #3A703E",
"{.	c #487C42",
"].	c #457940",
"^.	c #3B703E",
"/.	c #316539",
"(.	c #26462A",
"_.	c #2E5E37",
":.	c #33693C",
"<.	c #356B3D",
"[.	c #376D3D",
"}.	c #376D3E",
"|.	c #366D3E",
"1.	c #356C3D",
"2.	c #244128",
"3.	c #313D25",
"4.	c #1F3224",
"5.	c #264C31",
"6.	c #2F5F39",
"7.	c #336A3C",
"8.	c #2F6039",
"9.	c #1F3324",
"0.	c #485C34",
"a.	c #313C25",
"b.	c #1C2A22",
"c.	c #213F2E",
"d.	c #285134",
"e.	c #2C5A37",
"f.	c #1C2B22",
"g.	c #374529",
"h.	c #253425",
"i.	c #20392A",
"j.	c #22402F",
"k.	c #234330",
"l.	c #234430",
"m.	c #224430",
"n.	c #20392B",
"o.	c #253525",
"p.	c #475A33",
"q.	c #39492C",
"r.	c #1F372A",
"s.	c #213D2E",
"t.	c #213E2F",
"u.	c #223E2F",
"v.	c #223F2F",
"w.	c #1F362A",
"x.	c #243425",
"y.	c #39492B",
"z.	c #465A33",
"A.	c #465933",
"B.	c #37462A",
"C.	c #283928",
"D.	c #213527",
"E.	c #263627",
"F.	c #313926",
"G.	c #373C26",
"H.	c #303926",
"I.	c #213528",
"J.	c #283927",
"K.	c #465932",
"L.	c #4E6238",
"M.	c #475A34",
"N.	c #334127",
"O.	c #25261B",
"P.	c #322A19",
"Q.	c #433418",
"R.	c #4E3B18",
"S.	c #433518",
"T.	c #26271C",
"U.	c #344127",
"V.	c #475B33",
"W.	c #4B5F35",
"X.	c #3B4427",
"Y.	c #332917",
"Z.	c #433014",
"`.	c #543E16",
" +	c #5D4718",
".+	c #433113",
"++	c #342A17",
"@+	c #3B4428",
"#+	c #4C6036",
"$+	c #43502D",
"%+	c #3E3D21",
"&+	c #473717",
"*+	c #5C481C",
"=+	c #6B5522",
"-+	c #6B5622",
";+	c #5D481C",
">+	c #473718",
",+	c #3E3D20",
"'+	c #43512D",
")+	c #45522E",
"!+	c #424021",
"~+	c #5E4E25",
"{+	c #735F2C",
"]+	c #73602C",
"^+	c #5E4F25",
"/+	c #424022",
"(+	c #4C5F36",
"_+	c #47552F",
":+	c #565A31",
"<+	c #636334",
"[+	c #646334",
"}+	c #575B30",
"|+	c #4F6237",
"1+	c #516338",
"2+	c #4E6237",
"                      .                           ",
"                  + @ # $ @ %                     ",
"                + & * = - ; & %                   ",
"              > , ' ) ! ~ { ] , >                 ",
"            % ^ / ( _ : < [ } | 1 %               ",
"            2 $ 3 4 5 6 7 5 4 8 9 2               ",
"            0 a b c d e e f g b h i               ",
"          j k l m n o p p o n q r s j             ",
"        t u v w x y z o o z A x B C D t E         ",
"      t F G H I J K L M N O K J P Q R S t         ",
"      T U V W X Y K Z Z Z Z K Y X `  ...+.        ",
"      @.#.$.%.&.*.=.-.-.-.-.=.;.&.%.>.,.+.        ",
"      @.,.'.).!.~.*.{.{.{.{.].^.!./.(...+.        ",
"      @.,.$._.:.<.[.}.}.}.}.|.1.:._.2.U +.        ",
"      T 3.4.5.6.:.7.:.:.:.:.:.:.8.5.9.U 0.        ",
"      T a.b.c.d.e.e.e.e.e.e.e.e.d.c.f.3.0.        ",
"      i g.h.i.j.k.l.m.m.m.l.l.k.j.n.o.# 0         ",
"      % p.q.h.r.s.t.u.v.v.u.t.s.w.x.y.z.%         ",
"          A.B.C.D.E.F.G.G.H.E.I.J.B.K.L.          ",
"          > M.N.O.P.Q.R.R.S.P.T.U.V.>             ",
"            W.X.Y.Z.`. + +`..+++@+W.              ",
"            #+$+%+&+*+=+-+;+>+,+'+#+              ",
"            > W.)+!+~+{+]+^+/+)+(+                ",
"                j _+:+<+[+}+_+i                   ",
"                  > |+1+1+|+2+                    "};
