/* XPM */
static char * tree2_xpm[] = {
"25 25 91 1",
" 	c None",
".	c #4E6338",
"+	c #4D6237",
"@	c #4D6137",
"#	c #4B6036",
"$	c #4C632E",
"%	c #516A2C",
"&	c #495D32",
"*	c #405730",
"=	c #749B3E",
"-	c #8BB744",
";	c #507134",
">	c #455832",
",	c #465933",
"'	c #466630",
")	c #77A846",
"!	c #80B047",
"~	c #63903F",
"{	c #3A4D2B",
"]	c #485C35",
"^	c #33492C",
"/	c #48763D",
"(	c #6A9C46",
"_	c #71A347",
":	c #5B8D43",
"<	c #365B33",
"[	c #3E502F",
"}	c #4D6238",
"|	c #364529",
"1	c #2F5533",
"2	c #4F8143",
"3	c #5A8D46",
"4	c #5B8E46",
"5	c #578A45",
"6	c #41703C",
"7	c #273E28",
"8	c #475A33",
"9	c #344429",
"0	c #306037",
"a	c #3C713E",
"b	c #487C41",
"c	c #487C42",
"d	c #447840",
"e	c #356B3D",
"f	c #29492B",
"g	c #334228",
"h	c #274D31",
"i	c #32663B",
"j	c #32683C",
"k	c #2E5E38",
"l	c #233A27",
"m	c #4E6238",
"n	c #37462A",
"o	c #21392A",
"p	c #244631",
"q	c #244731",
"r	c #22412E",
"s	c #263625",
"t	c #475B34",
"u	c #4C6036",
"v	c #41522F",
"w	c #2E3C26",
"x	c #223427",
"y	c #323926",
"z	c #383C26",
"A	c #293627",
"B	c #253526",
"C	c #38472A",
"D	c #485B34",
"E	c #3F4F2E",
"F	c #3B4A2B",
"G	c #342D19",
"H	c #523E17",
"I	c #5C4719",
"J	c #423216",
"K	c #343A22",
"L	c #415330",
"M	c #3E4E2D",
"N	c #3B4226",
"O	c #5B4D24",
"P	c #6C5A29",
"Q	c #443F21",
"R	c #3D4B2B",
"S	c #4A5E35",
"T	c #424F2D",
"U	c #46512E",
"V	c #3F4E2D",
"W	c #445732",
"X	c #495D35",
"Y	c #475A34",
"Z	c #4C6137",
"                         ",
" ........................",
" ........................",
" ........................",
" ........................",
" ........................",
" ...........+@...........",
" ..........#$%&..........",
" .........#*=-;>.........",
" .........,')!~{+........",
" ........]^/(_:<[@.......",
" .......}|12345678.......",
" .......}90abcdef,.......",
" .......}ghijjjkl,.......",
" .......mnopqqqrst.......",
" .......uvwxyzABC8m......",
" .......DEFGHIJKEL@......",
" .......DEMNOPQREL@......",
" .......SvEMTUVEEW+......",
" ........X888888YZ.......",
" ........................",
" ........................",
" ........................",
" ........................",
" ........................"};
