/* XPM */
static char * coin_xpm[] = {
"16 16 22 1",
" 	c #4E6338",
".	c #38532B",
"+	c #8D956E",
"@	c #608638",
"#	c #355329",
"$	c #354727",
"%	c #7DAC48",
"&	c #BFD58D",
"*	c #8DBB53",
"=	c #328F26",
"-	c #354726",
";	c #1E401E",
">	c #378D28",
",	c #20441D",
"'	c #013918",
")	c #2F8A25",
"!	c #1D411F",
"~	c #4AA423",
"{	c #75AB38",
"]	c #4AA524",
"^	c #40522D",
"/	c #3E502C",
"                ",
"                ",
"                ",
"                ",
"                ",
"     .+@#       ",
"    $%&*=-      ",
"    ;>,')!      ",
"    $~{{]-      ",
"     ^//^       ",
"                ",
"                ",
"                ",
"                ",
"                ",
"                "};
