/* XPM */
static char * Soldier_back_xpm[] = {
"18 25 14 1",
" 	c #000000",
".	c #007D89",
"+	c #005355",
"@	c #00332F",
"#	c #1E1E1E",
"$	c #363636",
"%	c #4D4C4B",
"&	c #A29E96",
"*	c #7D7B76",
"=	c #040404",
"-	c #F6A954",
";	c #D97F40",
">	c #3F3013",
",	c #5D4717",
"                  ",
"                  ",
"                  ",
"                  ",
"        ..        ",
"       +..+       ",
"       ++++       ",
"       @++@       ",
"      #@@@@#      ",
"     #$%@@%$#     ",
"    #$%%&&%%$#    ",
"    **$%**%$**    ",
"    %**&&&&**%    ",
"    #%**&&**%#    ",
"     #$$%%$$#     ",
"     %%%%%%%%     ",
"   ===$%%%%$===   ",
"  =--********--=  ",
"  =-;*%****%*;-=  ",
"   ===%%%%%%===   ",
"     =$%%%%$=     ",
"     =>>==>>=     ",
"     =,,==,,=     ",
"                  ",
"                  "};
