/* XPM */
static char * soldier_back_xpm[] = {
"16 16 56 1",
" 	c #4E6338",
".	c #495D34",
"+	c #475A32",
"@	c #235754",
"#	c #4A5E35",
"$	c #264334",
"%	c #016B74",
"&	c #1A372D",
"*	c #005153",
"=	c #4B5F36",
"-	c #313D23",
";	c #202B2A",
">	c #193B38",
",	c #4B6036",
"'	c #37432B",
")	c #393837",
"!	c #434342",
"~	c #6B6C67",
"{	c #485C34",
"]	c #44473E",
"^	c #6F6D69",
"/	c #696763",
"(	c #898680",
"_	c #2D3525",
":	c #555451",
"<	c #7B7873",
"[	c #95918A",
"}	c #3B4C2A",
"|	c #323331",
"1	c #4A4948",
"2	c #585654",
"3	c #4F5E34",
"4	c #5D4823",
"5	c #473A2F",
"6	c #494948",
"7	c #545351",
"8	c #4D6237",
"9	c #6E5C2F",
"0	c #DC9449",
"a	c #A78163",
"b	c #70706D",
"c	c #797773",
"d	c #555E34",
"e	c #795A2E",
"f	c #574536",
"g	c #4D4D4C",
"h	c #5A5957",
"i	c #4C6137",
"j	c #333F23",
"k	c #3E352A",
"l	c #3A3732",
"m	c #414E2B",
"n	c #4F4C23",
"o	c #3B4020",
"p	c #4F6237",
"q	c #4D6137",
"       ..       ",
"      +@@+      ",
"     #$%%$#     ",
"     .&**&.     ",
"    =-;>>;-=    ",
"   ,')!~~!)',   ",
"   {]^/((/^]{   ",
"   ._:<[[<:_.   ",
"    }|1221|}    ",
"   3456776543   ",
"  890abccba098  ",
"   defghhgfed   ",
"    ijkllkji    ",
"     mnoonm     ",
"     8pqqp8     ",
"                "};
