/* XPM */
static char * coin_xpm[] = {
"25 25 10 1",
" 	c #4E6338",
".	c #000000",
"+	c #087129",
"@	c #E0E8B1",
"#	c #C0E869",
"$	c #40AD29",
"%	c #005928",
"&	c #002F15",
"*	c #6BD926",
"=	c #A9E74E",
"                         ",
"                         ",
"                         ",
"                         ",
"                         ",
"                         ",
"                         ",
"                         ",
"         ......          ",
"        .+@@#$+.         ",
"       .%#@@##$%.        ",
"      .&$##+++$$&.       ",
"      .%$%&&&&%$%.       ",
"      .%$&&&&&&$%.       ",
"      .&*$%&&%$*&.       ",
"       .%*====*%.        ",
"        ........         ",
"                         ",
"                         ",
"                         ",
"                         ",
"                         ",
"                         ",
"                         ",
"                         "};
