/* XPM */
static char * enmy2_xpm[] = {
"25 25 14 1",
" 	c #4E6338",
".	c #040404",
"+	c #347322",
"@	c #A7CB35",
"#	c #214614",
"$	c #E2E739",
"%	c #E3E3E3",
"&	c #5BA60B",
"*	c #E8E8E8",
"=	c #002E27",
"-	c #007966",
";	c #C99236",
">	c #2B2F32",
",	c #004F43",
"                         ",
"                         ",
"                         ",
"                         ",
"                         ",
"         ......          ",
"        .+@@@@+.         ",
"       .#@$@@@@#.        ",
"     .%.#&@@@@&#...      ",
"     .%&&&&&&&&&&&.      ",
"     %%+&*.@@.*&+.       ",
"     %%..*.@@.*..+.      ",
"     %% .#&&&&#==#.      ",
"     %%%.-=;>>=...       ",
"     %%%%,-;%%>.         ",
"     %%%%%%%%%%%>        ",
"      %%%%%%%%%%>        ",
"       %%%%%%%%>         ",
"        %%%%%%           ",
"                         ",
"                         ",
"                         ",
"                         ",
"                         ",
"                         "};
