/* XPM */
static char * enmy1_xpm[] = {
"25 25 17 1",
" 	c #4E6338",
".	c #2B2F32",
"+	c #040404",
"@	c #DADADA",
"#	c #347322",
"$	c #A7CB35",
"%	c #214614",
"&	c #E2E739",
"*	c #5BA60B",
"=	c #C99236",
"-	c #E8E8E8",
";	c #007966",
">	c #1C3012",
",	c #004F43",
"'	c #002E27",
")	c #3F3013",
"!	c #5D4717",
"                         ",
"                         ",
"                         ",
"                         ",
"                         ",
"      .  ++++++          ",
"     .@.+#$$$$#+         ",
"     .@.%$&$$$$%+        ",
"     .@.%*$$$$*%+++      ",
"     .@.**********+      ",
"    +===*-+$$+-*#+       ",
"     +*++-+$$+-++        ",
"     +*#;%****%;+        ",
"      ++;;>>>>;;;+       ",
"        +,;;;;+**+       ",
"        +,,,,,+#*+       ",
"        +',,,,'++        ",
"        +))++))+         ",
"            +!!+         ",
"                         ",
"                         ",
"                         ",
"                         ",
"                         ",
"                         "};
