/* XPM */
static char * exit_xpm[] = {
"25 25 129 2",
"  	c #4E6338",
". 	c #301C1A",
"+ 	c #583430",
"@ 	c #57332F",
"# 	c #55322F",
"$ 	c #502F2C",
"% 	c #432725",
"& 	c #4E2E2B",
"* 	c #56322F",
"= 	c #482A28",
"- 	c #472A28",
"; 	c #53312E",
"> 	c #5A3531",
", 	c #3E2421",
"' 	c #100808",
") 	c #37201E",
"! 	c #5E3733",
"~ 	c #502D2D",
"{ 	c #4D2B2C",
"] 	c #48292A",
"^ 	c #3D2224",
"/ 	c #462829",
"( 	c #412526",
"_ 	c #402425",
": 	c #4B2A2B",
"< 	c #4E2C2C",
"[ 	c #5C3533",
"} 	c #472926",
"| 	c #140A0A",
"1 	c #2B1918",
"2 	c #442726",
"3 	c #2C181C",
"4 	c #2D181E",
"5 	c #30191E",
"6 	c #2D181D",
"7 	c #2F191E",
"8 	c #311A1F",
"9 	c #2E181E",
"0 	c #2A171B",
"a 	c #3E2424",
"b 	c #0F0708",
"c 	c #2F1B1A",
"d 	c #472928",
"e 	c #2B161C",
"f 	c #3C1F26",
"g 	c #48272B",
"h 	c #412228",
"i 	c #2D161E",
"j 	c #3B2220",
"k 	c #110808",
"l 	c #52302D",
"m 	c #321A1F",
"n 	c #512D2F",
"o 	c #4D2A2D",
"p 	c #351C21",
"q 	c #4A2A2A",
"r 	c #452825",
"s 	c #52302E",
"t 	c #321B20",
"u 	c #49282C",
"v 	c #4E2B2E",
"w 	c #351C22",
"x 	c #351F1D",
"y 	c #502E2C",
"z 	c #482929",
"A 	c #432724",
"B 	c #2D1A19",
"C 	c #452827",
"D 	c #3E2324",
"E 	c #39211F",
"F 	c #3F2424",
"G 	c #321B1F",
"H 	c #502D2F",
"I 	c #4B2A2C",
"J 	c #47272A",
"K 	c #331B20",
"L 	c #361F1D",
"M 	c #512F2D",
"N 	c #4C2A2C",
"O 	c #351D21",
"P 	c #2A161C",
"Q 	c #2C1918",
"R 	c #49282B",
"S 	c #341C21",
"T 	c #29151C",
"U 	c #24121A",
"V 	c #3B2222",
"W 	c #2E1B19",
"X 	c #462927",
"Y 	c #422327",
"Z 	c #3C1F25",
"` 	c #2E171E",
" .	c #3A2220",
"..	c #522F2D",
"+.	c #4F2C2E",
"@.	c #4B292D",
"#.	c #442825",
"$.	c #150A0A",
"%.	c #432726",
"&.	c #3D2323",
"*.	c #38201E",
"=.	c #100708",
"-.	c #472927",
";.	c #402424",
">.	c #36201E",
",.	c #442725",
"'.	c #482A27",
").	c #54302E",
"!.	c #4D2B2D",
"~.	c #512F2C",
"{.	c #211212",
"].	c #392020",
"^.	c #3B2121",
"/.	c #251317",
"(.	c #371D20",
"_.	c #3D2123",
":.	c #3B2022",
"<.	c #281419",
"[.	c #341D1E",
"}.	c #3E2322",
"|.	c #1B0F0F",
"1.	c #110708",
"2.	c #0A0406",
"3.	c #100609",
"4.	c #120809",
"5.	c #110709",
"6.	c #0B0507",
"7.	c #0F0608",
"8.	c #080405",
"                                                  ",
"      . + @ # $ % & * # # = - ; # * > , '         ",
"      ) ! ~ { ] ^ / { { { ( _ : { < [ } |         ",
"      1 2 3 4 5 6 7 8 8 8 9 9 8 7 0 a ) b         ",
"      c d e f g g g g g g g g g h i _ j k         ",
"      ) l m g n n n n n n n n n o p q r |         ",
"      ) s t u n n n n n n n n n v w q r |         ",
"      x y 8 u n n n n n n n n n v p z A |         ",
"      B C 7 u n n n n n n n n n v p D E '         ",
"      B C 7 u n n n n n n n n n v p F E '         ",
"      ) s G u n n n n n n n n n v w q r |         ",
"      ) s t u n n n n n n n H I J K q r |         ",
"      L M m u n n n n n n n N ^ O P z A |         ",
"      Q % 7 u n n n n n n n R S T U V ) b         ",
"      W X 7 u n n n n n n n v Y Z ` F  .k         ",
"      ) ..G u n n n n n n n n +.@.p q #.|         ",
"      ) s G u n n n n n n n n n v w q r $.        ",
"      ) s G u n n n n n n n n n v w q r $.        ",
"      ) s G u n n n n n n n n n v w q r $.        ",
"      Q %.7 u n n n n n n n n n v p &.*.=.        ",
"      W -.5 u n n n n n n n n n v p ;. .k         ",
"      >.M m u n n n n n n n n n v p z ,.$.        ",
"      '.).m R H H H H H H H H H !.p q ~.{.        ",
"      ].^./.(._._._._._._._._._.:.<.[.}.|.        ",
"      =.1.2.3.4.4.4.4.4.4.4.4.4.5.6.7.4.8.        "};
