/* XPM */
static char * ply_right_xpm[] = {
"25 25 21 1",
" 	c #4E6338",
".	c #040404",
"+	c #D4CFC4",
"@	c #A8A59D",
"#	c #686662",
"$	c #8B9E0F",
"%	c #627105",
"&	c #433416",
"*	c #303600",
"=	c #866114",
"-	c #455000",
";	c #6E6C68",
">	c #BFB7A6",
",	c #D97F40",
"'	c #F6A954",
")	c #E8E8E8",
"!	c #F7D099",
"~	c #AA5A33",
"{	c #84482A",
"]	c #3F3013",
"^	c #5D4717",
"                         ",
"                         ",
"                         ",
"      ....               ",
"     .+++@.              ",
"    .+++@@@...           ",
"    ....###$$%.          ",
"       ..&#$$%&.         ",
"      .**=-%%;>;.        ",
"      .-*&===>&&*.       ",
"      .---&&&;>;%*.      ",
"      .**-%$$$$$%-.      ",
"      .***-%$$$%--.      ",
"       .*********.       ",
"        .,,'').!.        ",
"        .~~,,''~.        ",
"         .-%%{{.         ",
"         .-%%--.         ",
"         ..''.-.         ",
"         ..',.*.         ",
"          ...].          ",
"          .^^^.          ",
"                         ",
"                         ",
"                         "};
