/* XPM */
static char * ply_back_xpm[] = {
"25 25 16 1",
" 	c #4E6338",
".	c #040404",
"+	c #D4CFC4",
"@	c #A8A59D",
"#	c #627105",
"$	c #8B9E0F",
"%	c #686662",
"&	c #433416",
"*	c #303600",
"=	c #866114",
"-	c #455000",
";	c #AA5A33",
">	c #D97F40",
",	c #F6A954",
"'	c #3F3013",
")	c #5D4717",
"                         ",
"                         ",
"               ..        ",
"              .++.       ",
"          ....@@++.      ",
"         .#$$#%%...      ",
"       ..&#$$#%..        ",
"      .**=-##-=**.       ",
"      .*-&====&-*.       ",
"      .-##&&&&##-.       ",
"      .*#$$$$$$#*.       ",
"      .**------**.       ",
"       .*------*.        ",
"        .******.         ",
"       .#;>>>>;#.        ",
"      .##########.       ",
"     .,,.-####-.,,.      ",
"     .,>.------.>,.      ",
"      ...*----*...       ",
"        .''..''.         ",
"        .))..)).         ",
"                         ",
"                         ",
"                         ",
"                         "};
